<?xml version="1.0" standalone="no"?>
<!DOCTYPE svg PUBLIC "-//W3C//DTD SVG 20010904//EN"
 "http://www.w3.org/TR/2001/REC-SVG-20010904/DTD/svg10.dtd">
<svg version="1.0" xmlns="http://www.w3.org/2000/svg"
 width="1024.000000pt" height="1024.000000pt" viewBox="0 0 1024.000000 1024.000000"
 preserveAspectRatio="xMidYMid meet">
<metadata>
Created by potrace 1.11, written by Peter Selinger 2001-2013
</metadata>
<g transform="translate(0.000000,1024.000000) scale(0.100000,-0.100000)"
fill="#000000" stroke="none">
<path d="M180 10231 c-86 -26 -153 -95 -170 -175 -8 -37 -10 -1432 -8 -4966
l3 -4915 22 -41 c33 -61 96 -111 157 -124 37 -8 1432 -10 4966 -8 l4915 3 41
22 c61 33 111 96 124 157 8 37 10 1432 8 4966 l-3 4915 -22 41 c-30 56 -94
109 -148 123 -51 13 -9843 14 -9885 2z m1150 -1736 l0 -104 42 -12 c24 -6 61
-20 83 -31 48 -25 135 -87 135 -97 0 -4 -29 -42 -65 -84 l-66 -76 -68 36 c-59
30 -80 36 -138 37 -74 1 -103 -11 -103 -45 0 -26 32 -44 164 -93 135 -51 204
-92 245 -148 54 -73 60 -182 16 -268 -33 -65 -127 -130 -208 -145 l-37 -7 0
-124 0 -124 -90 0 -90 0 0 118 0 117 -70 17 c-71 17 -177 64 -218 96 l-24 18
57 90 c32 49 59 91 62 93 2 3 34 -10 71 -28 119 -60 242 -79 290 -45 51 36 18
68 -124 124 -149 57 -199 86 -249 142 -122 136 -62 339 119 407 31 11 63 21
71 21 12 0 15 20 15 110 l0 110 90 0 90 0 0 -105z m5148 -543 l2 -563 -117 3
-117 3 -8 33 c-9 36 -19 40 -39 16 -7 -8 -36 -27 -63 -42 -43 -22 -64 -27
-131 -27 -68 0 -89 4 -138 29 -219 107 -261 521 -74 714 69 71 127 97 223 97
74 0 85 -3 132 -32 l52 -32 0 185 0 185 138 -3 137 -3 3 -563z m-2268 353 l0
-105 160 0 160 0 0 -110 0 -110 -160 0 -160 0 0 -152 c0 -171 6 -193 60 -221
33 -17 98 -19 219 -5 22 3 25 -3 46 -92 13 -52 22 -96 20 -98 -1 -2 -47 -12
-101 -24 -250 -51 -426 6 -498 161 -18 41 -21 69 -24 239 l-4 192 -99 0 -99 0
0 104 0 103 68 6 c37 4 83 7 103 7 l37 0 11 63 c6 34 13 81 17 105 l7 42 118
0 119 0 0 -105z m-888 -96 c55 -11 238 -92 238 -105 0 -5 -85 -124 -116 -163
-2 -2 -14 3 -26 11 -52 34 -139 58 -209 58 -78 0 -109 -11 -109 -40 0 -28 32
-45 140 -75 141 -39 200 -62 251 -100 158 -114 93 -327 -121 -396 -89 -28
-243 -36 -335 -16 -77 16 -206 67 -244 96 l-23 18 52 74 c30 41 57 78 61 83 5
6 43 -7 91 -29 75 -36 92 -40 180 -43 79 -4 103 -1 123 12 56 37 23 63 -133
110 -181 55 -271 106 -308 177 -35 68 -6 190 58 244 95 80 278 115 430 84z
m1688 -278 c0 -256 1 -269 21 -295 35 -45 134 -30 173 26 14 19 16 63 16 280
l0 258 140 0 140 0 0 -405 0 -405 -114 0 c-121 0 -126 2 -126 53 0 46 -14 49
-56 13 -76 -65 -119 -81 -219 -81 -80 0 -95 3 -137 28 -38 22 -53 40 -80 94
l-33 68 -3 317 -3 318 140 0 141 0 0 -269z m1952 81 c37 -103 76 -221 88 -262
12 -41 23 -82 26 -90 3 -8 29 64 59 160 29 96 67 221 85 278 l32 102 129 0
c71 0 129 -3 129 -6 0 -17 -307 -809 -341 -881 -66 -138 -152 -205 -285 -222
-67 -8 -177 -2 -190 11 -3 4 4 51 16 105 l23 99 61 0 c76 0 119 21 145 72 l19
37 -169 388 c-93 213 -169 390 -169 392 0 3 62 5 138 5 l137 0 67 -188z
m-2637 -1452 c50 -31 78 -91 72 -153 -5 -60 -30 -95 -87 -124 -142 -73 -304
43 -262 186 13 43 67 98 108 111 45 14 130 4 169 -20z m1663 -280 l-5 -199 31
23 c63 48 117 68 196 73 68 5 84 3 132 -19 67 -31 103 -76 129 -159 17 -54 19
-94 19 -355 l0 -294 -140 0 -140 0 0 260 c0 319 -3 330 -99 330 -23 0 -52 -10
-79 -27 l-42 -27 0 -268 0 -268 -140 0 -140 0 0 565 0 565 141 0 142 0 -5
-200z m-808 -15 l0 -105 160 0 160 0 0 -110 0 -110 -160 0 -160 0 0 -152 c0
-133 3 -157 19 -184 33 -53 80 -61 260 -42 23 3 26 -3 48 -91 13 -51 22 -95
20 -98 -3 -2 -49 -13 -103 -24 -106 -22 -244 -22 -316 0 -76 24 -131 71 -168
146 l-35 69 -3 188 -4 188 -99 0 -99 0 0 104 0 103 68 6 c37 4 83 7 103 7 42
0 40 -3 60 128 l12 82 119 0 118 0 0 -105z m-2207 -157 c3 -29 13 -143 22
-253 9 -110 20 -218 25 -240 l8 -40 1 40 c1 33 28 219 56 383 l6 32 94 0 93 0
6 -27 c3 -16 17 -98 31 -183 14 -85 29 -175 33 -200 l9 -45 6 75 c4 41 14 158
22 260 9 102 18 200 21 218 l5 32 126 0 126 0 -6 -42 c-3 -24 -27 -206 -53
-405 l-48 -363 -162 0 -161 0 -22 198 c-27 230 -34 268 -39 202 -1 -25 -12
-121 -22 -213 -11 -93 -20 -173 -20 -178 0 -5 -70 -9 -160 -9 -88 0 -160 4
-160 8 0 5 -25 178 -55 386 -30 207 -55 385 -55 396 0 19 7 20 134 20 l133 0
6 -52z m1397 -353 l0 -405 -140 0 -140 0 0 295 0 295 -155 0 -155 0 0 110 0
110 295 0 295 0 0 -405z m-2750 130 l0 -95 -385 0 -385 0 0 95 0 95 385 0 385
0 0 -95z m970 0 l0 -95 -385 0 -385 0 0 95 0 95 385 0 385 0 0 -95z m4860
-2010 l0 -566 -117 3 -117 3 -8 33 c-9 33 -10 33 -31 18 -12 -9 -49 -30 -82
-46 -136 -67 -301 -15 -382 121 -81 136 -86 365 -11 512 75 149 252 225 386
167 28 -12 57 -28 63 -36 6 -8 14 -14 18 -14 3 0 5 83 3 185 l-3 185 141 0
140 0 0 -565z m-6059 235 c114 -44 194 -127 239 -248 19 -48 21 -73 18 -162
-3 -92 -7 -113 -35 -171 -17 -37 -48 -85 -69 -108 -100 -112 -283 -159 -433
-112 -124 39 -200 104 -255 220 -29 63 -31 72 -31 187 0 119 0 121 38 196 55
112 136 178 260 213 71 20 195 13 268 -15z m1994 -14 c82 -40 129 -89 167
-172 19 -42 23 -66 23 -169 l0 -120 -258 -3 -258 -2 6 -23 c12 -42 69 -84 131
-97 68 -14 129 -9 208 19 l56 20 14 -22 c25 -41 76 -137 76 -142 0 -13 -131
-66 -196 -80 -238 -51 -457 39 -540 220 -92 201 -23 444 157 552 79 47 148 64
252 59 77 -3 97 -8 162 -40z m1124 28 c32 -9 51 -20 48 -27 -2 -7 -14 -58 -27
-115 l-23 -103 -56 8 c-152 22 -250 -20 -320 -137 -19 -32 -21 -50 -21 -237
l0 -203 -140 0 -140 0 0 405 0 405 115 0 114 0 5 -32 c3 -18 9 -57 13 -86 l8
-53 38 50 c87 118 242 168 386 125z m824 1 c61 -16 127 -46 164 -75 l23 -18
-65 -85 -64 -85 -49 25 c-102 50 -235 23 -289 -59 -34 -51 -38 -152 -9 -211
51 -104 184 -130 321 -62 58 29 54 31 118 -74 l46 -74 -22 -17 c-68 -53 -171
-88 -282 -96 -205 -16 -372 71 -452 235 -26 52 -28 65 -28 181 0 118 2 128 29
185 90 183 341 287 559 230z m868 -1 c198 -59 309 -206 309 -409 0 -232 -158
-405 -386 -422 -277 -21 -487 211 -444 491 14 92 47 163 104 224 105 112 273
159 417 116z m2025 -18 c127 -58 202 -172 212 -321 2 -46 2 -99 -2 -119 l-7
-36 -254 0 c-178 0 -255 -3 -255 -11 0 -25 36 -69 74 -90 57 -32 186 -33 266
-1 30 12 57 18 61 14 4 -4 25 -41 48 -84 l42 -76 -63 -31 c-226 -111 -517 -62
-638 106 -59 82 -75 139 -75 263 0 97 2 110 32 172 79 166 224 252 414 244 67
-3 100 -9 145 -30z m1130 23 c25 -7 48 -18 51 -25 4 -11 -23 -149 -43 -215 -4
-14 -11 -14 -71 -2 -120 25 -219 -14 -288 -112 l-35 -49 0 -208 0 -208 -140 0
-140 0 0 405 0 405 114 0 114 0 6 -47 c4 -27 9 -65 12 -86 l6 -39 16 24 c88
132 247 195 398 157z m-7287 -106 c54 -178 79 -267 107 -373 14 -58 30 -111
34 -118 4 -8 18 31 34 90 14 57 53 191 85 298 l58 195 131 3 c73 1 132 -1 132
-5 0 -4 -62 -186 -138 -403 l-137 -395 -161 -3 c-147 -2 -162 -1 -169 15 -4
10 -67 185 -140 388 -73 204 -137 378 -140 388 -7 16 4 17 134 17 l140 0 30
-97z"/>
<path d="M6011 7953 c-33 -33 -40 -47 -46 -97 -14 -113 9 -209 60 -242 39 -26
122 -14 152 20 22 26 23 35 23 170 0 168 -4 176 -95 184 -53 4 -56 3 -94 -35z"/>
<path d="M6987 3881 c-26 -24 -38 -44 -46 -82 -22 -102 -5 -206 41 -252 26
-27 34 -29 84 -25 39 3 61 11 79 28 24 23 25 27 25 170 0 172 -4 180 -94 188
-48 4 -56 1 -89 -27z"/>
<path d="M1211 3912 c-70 -11 -106 -81 -105 -202 1 -85 28 -161 64 -180 32
-17 107 -14 136 5 41 27 58 79 58 180 0 74 -4 98 -22 132 -12 23 -27 45 -33
49 -18 11 -72 20 -98 16z"/>
<path d="M3133 3911 c-38 -18 -73 -61 -73 -91 0 -6 48 -10 136 -10 l137 0 -7
33 c-15 75 -108 108 -193 68z"/>
<path d="M6062 3909 c-46 -10 -70 -35 -87 -92 -30 -103 -8 -240 46 -280 31
-22 106 -25 138 -5 41 25 62 88 62 183 0 151 -54 217 -159 194z"/>
<path d="M7994 3911 c-44 -20 -74 -54 -74 -83 0 -16 12 -18 129 -18 72 0 132
4 136 10 3 5 -1 25 -9 45 -26 61 -104 81 -182 46z"/>
</g>
</svg>
