<?xml version="1.0" standalone="no"?>
<!DOCTYPE svg PUBLIC "-//W3C//DTD SVG 20010904//EN"
 "http://www.w3.org/TR/2001/REC-SVG-20010904/DTD/svg10.dtd">
<svg version="1.0" xmlns="http://www.w3.org/2000/svg"
 width="700.000000pt" height="700.000000pt" viewBox="0 0 700.000000 700.000000"
 preserveAspectRatio="xMidYMid meet">
<metadata>
Created by potrace 1.11, written by Peter Selinger 2001-2013
</metadata>
<g transform="translate(0.000000,700.000000) scale(0.100000,-0.100000)"
fill="#000000" stroke="none">
<path d="M1160 3495 l0 -2275 1763 2 1762 3 0 85 0 85 -1662 3 -1663 2 0 80 0
80 1665 0 1665 0 0 1640 0 1640 100 0 100 0 0 315 0 315 -105 0 -105 0 0 150
0 150 -1760 0 -1760 0 0 -2275z"/>
<path d="M5436 5059 c-24 -28 -26 -38 -26 -125 l0 -94 -45 0 -45 0 0 -125 0
-125 183 2 182 3 3 123 3 122 -46 0 -45 0 0 80 c0 126 -27 170 -103 170 -27 0
-41 -7 -61 -31z"/>
<path d="M5320 3295 l0 -1205 183 2 182 3 3 1203 2 1202 -185 0 -185 0 0
-1205z"/>
<path d="M5462 1388 c23 -68 51 -77 74 -23 21 51 19 55 -35 55 l-50 0 11 -32z"/>
</g>
</svg>
