<?xml version="1.0" standalone="no"?>
<!DOCTYPE svg PUBLIC "-//W3C//DTD SVG 20010904//EN"
 "http://www.w3.org/TR/2001/REC-SVG-20010904/DTD/svg10.dtd">
<svg version="1.0" xmlns="http://www.w3.org/2000/svg"
 width="700.000000pt" height="700.000000pt" viewBox="0 0 700.000000 700.000000"
 preserveAspectRatio="xMidYMid meet">
<metadata>
Created by potrace 1.11, written by Peter Selinger 2001-2013
</metadata>
<g transform="translate(0.000000,700.000000) scale(0.100000,-0.100000)"
fill="#000000" stroke="none">
<path d="M1160 3495 l0 -2275 1765 0 1765 0 0 1810 0 1810 105 0 105 0 -2 318
-3 317 -102 3 -103 3 0 144 0 145 -1765 0 -1765 0 0 -2275z m3520 -2015 l0
-80 -1660 0 -1660 0 0 80 0 80 1660 0 1660 0 0 -80z"/>
<path d="M5463 5085 c-45 -19 -53 -42 -53 -149 l0 -95 -47 -3 -48 -3 -3 -1340
c-2 -1187 -1 -1355 13 -1475 19 -154 52 -316 96 -473 17 -60 32 -123 35 -139
4 -37 30 -78 48 -78 21 0 32 20 48 90 9 36 32 129 52 206 85 334 79 212 83
1622 l4 1252 34 0 35 0 0 -615 0 -615 45 0 45 0 0 660 0 660 -80 0 -80 0 0
125 0 125 -44 0 -44 0 -4 100 c-3 91 -5 102 -28 124 -33 31 -67 38 -107 21z"/>
</g>
</svg>
